# xmcd CD database file
#
# Track frame offsets:
#	150
#	19834
#	40460
#	50285
#	62158
#	86381
#	103958
#	117643
#	136507
#	152009
#	171781
#	192988
#
# Disc length: 2782 seconds
#
# Revision: 3
# Processed by: cddbd v1.4PL0 Copyright (c) Steve Scherf et al.
# Submitted via: CDex 1.50beta8
#
DISCID=9f0adc0c
DTITLE=Don Vappie and His New Orleans Jazz Band - Jazz Band From Santa Claus Land
DYEAR=1994
DGENRE=Jazz
TTITLE0=Hark The Herald Angels Sing 
TTITLE1=Let's Have An Old Fashioned Christmas 
TTITLE2=I'll Be Home For Christmas 
TTITLE3=New Orleans Jazz Band From Santa Claus 
TTITLE4=It Came Upon A Midnight Clear 
TTITLE5=Please Come Home For Christmas 
TTITLE6=Christmas Present 
TTITLE7=Too Fat For The Chimney 
TTITLE8=Star Of The East 
TTITLE9=Winter Wonderland 
TTITLE10=Silver Bells 
TTITLE11=Let There Be Peace On Earth 
EXTD=YEAR: 1994
EXTT0=
EXTT1=
EXTT2=
EXTT3=
EXTT4=
EXTT5=
EXTT6=
EXTT7=
EXTT8=
EXTT9=
EXTT10=
EXTT11=
PLAYORDER=
